# xmcd
#
# Track frame offsets: 
#        150
#        14065
#        33175
#        50597
#        66747
#        78130
#        92340
#        107315
#        129280
#
# Disc length: 2040 seconds
#
# Revision: 4
# Processed by: cddbd v1.5.2PL0 Copyright (c) Steve Scherf et al.
# Submitted via: ExactAudioCopy v1.1
#
DISCID=6807f609
DTITLE=Pata Negra - Blues De La Frontera
DYEAR=1987
DGENRE=Fusion
TTITLE0=Bodas De Sangre
TTITLE1=Blues De La Frontera
TTITLE2=Pasa La Vida
TTITLE3=Yo Me Quedo En Sevilla
TTITLE4=How High The Moon
TTITLE5=Camaron
TTITLE6=Calle Betis
TTITLE7=Lindo Gatito
TTITLE8=Lunatico
EXTD=
EXTT0=
EXTT1=
EXTT2=
EXTT3=
EXTT4=
EXTT5=
EXTT6=
EXTT7=
EXTT8=
PLAYORDER=
